<svg width="114" height="131" viewBox="0 0 114 131" fill="none" xmlns="http://www.w3.org/2000/svg">
<path d="M78.3928 46.7461C77.914 46.7461 77.4338 46.5794 77.0446 46.237L74.598 44.08C73.1588 42.8117 72.2938 40.9762 72.2262 39.044C72.1587 37.1103 72.8944 35.2183 74.2441 33.8488C75.0459 33.0375 76.3471 33.0345 77.1519 33.8458C77.9552 34.6601 77.9552 35.979 77.1533 36.7933C76.5982 37.3559 76.3074 38.1062 76.3368 38.8996C76.3647 39.6931 76.7054 40.415 77.2958 40.9346L79.7439 43.0916C80.6001 43.8478 80.6911 45.1637 79.9451 46.0316C79.5383 46.505 78.967 46.7461 78.3928 46.7461Z" fill="white"/>
<path d="M12.4712 2.46886C12.4462 4.97122 12.4565 7.47059 12.4682 9.97444C12.4785 11.9513 13.1658 12.6539 15.0984 12.6599C17.877 12.6629 20.6556 12.6599 23.4385 12.6629H30.5964C33.3764 12.6629 36.1579 12.6658 38.9365 12.6599C40.8265 12.6495 41.5329 11.9141 41.5432 9.94615V9.56954C41.5535 7.1952 41.5637 4.81789 41.5388 2.44802C41.5226 0.816504 40.7472 0.0230735 39.1729 0.0156304C31.0546 -0.00521014 22.9348 -0.00521014 14.8165 0.0156304C13.2304 0.0245621 12.4873 0.801617 12.4712 2.46886Z" fill="white"/>
<path d="M46.0738 130.37C45.7125 130.031 45.3541 129.689 45.0193 129.318C41.6739 125.601 40.0144 120.595 40.4652 115.582L43.9296 77.1942H2.45544C0.847341 78.385 0.0645871 79.8707 0.0645871 81.8476C-0.0440879 96.7634 0.00437526 111.632 0.0645871 124.207C0.0645871 127.606 2.7844 130.366 6.12836 130.366C6.70257 130.369 7.28413 130.367 7.85981 130.37V98.6555C7.85981 97.5063 8.78061 96.5729 9.91436 96.5729C11.0496 96.5729 11.9704 97.5063 11.9704 98.6555V130.381C23.3269 130.419 34.751 130.421 46.0738 130.37Z" fill="white"/>
<path d="M0.138016 43.3982C-0.0220594 43.9713 -0.013248 44.5757 0.158576 45.4123C0.541875 47.1019 1.45239 48.3806 3.0179 49.3869C3.66555 49.8126 4.09731 50.4364 4.38074 51.1137H46.2838L46.5995 47.6006C46.8036 45.3483 48.6408 43.6498 50.8745 43.6498H53.9967C53.985 43.5962 53.9894 43.5277 53.9747 43.4771C51.9481 35.4461 48.0593 29.6196 42.0631 25.587C41.715 25.3533 41.3038 25.2372 40.8015 25.2372H13.2892C12.7869 25.2372 12.3757 25.3518 12.0291 25.587C6.0329 29.6181 2.14263 35.4446 0.138016 43.3982Z" fill="white"/>
<path d="M4.71118 73.029H44.3056L45.9078 55.2773H3.46141C1.28938 57.3703 0.0572432 60.1123 0.0675233 63.0717C0.0763348 66.043 1.35253 68.8743 3.65967 71.0492C4.22654 71.5732 4.58194 72.2698 4.71118 73.029Z" fill="white"/>
<path d="M107.806 47.9802L97.1994 47.8134L97.0203 47.9757L94.7484 67.7683C94.2344 72.249 90.4924 75.6237 86.0441 75.6237H72.4553C68.0085 75.6237 64.2665 72.249 63.7511 67.7683L61.4806 47.9757L50.8745 47.8134L44.5596 115.962C44.2072 119.865 45.4496 123.611 48.0578 126.506C50.6645 129.403 54.2302 131 58.0985 131H100.404C104.272 131 107.836 129.403 110.445 126.506C113.051 123.609 114.294 119.865 113.941 115.962L107.806 47.9802ZM86.9869 98.5498H69.8559C68.7207 98.5498 67.7999 97.6164 67.7999 96.4672C67.7999 95.318 68.7207 94.3846 69.8559 94.3846H86.9869C88.1207 94.3846 89.0415 95.318 89.0415 96.4672C89.0415 97.6164 88.1207 98.5498 86.9869 98.5498Z" fill="white"/>
<path d="M80.0435 33.8592C88.0399 34.5425 96.0305 31.6546 101.737 25.8743C107.905 19.6206 110.781 10.6666 109.43 1.91956C109.37 1.52955 109.035 1.19014 108.65 1.12911C100.025 -0.24041 91.1886 2.6728 85.0161 8.92348C79.3092 14.7097 76.469 22.8048 77.1386 30.9132L95.3725 12.4336C96.1758 11.6194 97.477 11.6194 98.2803 12.4336C99.0836 13.2479 99.0836 14.5668 98.2803 15.3781L80.0435 33.8592Z" fill="white"/>
</svg>
